<svg width="30" height="30" viewBox="0 0 30 30" fill="none" xmlns="http://www.w3.org/2000/svg">
<path d="M6.985 26.7663C6.495 26.2763 6.25 25.6875 6.25 25C6.25 24.3125 6.495 23.7242 6.985 23.235C7.475 22.7458 8.06333 22.5008 8.75 22.5C9.43667 22.4992 10.0254 22.7442 10.5163 23.235C11.0071 23.7258 11.2517 24.3142 11.25 25C11.2483 25.6858 11.0037 26.2746 10.5163 26.7663C10.0288 27.2579 9.44 27.5025 8.75 27.5C8.06 27.4975 7.47167 27.2529 6.985 26.7663ZM19.485 26.7663C18.995 26.2763 18.75 25.6875 18.75 25C18.75 24.3125 18.995 23.7242 19.485 23.235C19.975 22.7458 20.5633 22.5008 21.25 22.5C21.9367 22.4992 22.5254 22.7442 23.0163 23.235C23.5071 23.7258 23.7517 24.3142 23.75 25C23.7483 25.6858 23.5037 26.2746 23.0163 26.7663C22.5287 27.2579 21.94 27.5025 21.25 27.5C20.56 27.4975 19.9717 27.2529 19.485 26.7663ZM7.6875 7.5L10.6875 13.75H19.4375L22.875 7.5H7.6875ZM6.5 5H24.9375C25.4167 5 25.7812 5.21375 26.0312 5.64125C26.2813 6.06875 26.2917 6.50083 26.0625 6.9375L21.625 14.9375C21.3958 15.3542 21.0887 15.6771 20.7038 15.9062C20.3188 16.1354 19.8967 16.25 19.4375 16.25H10.125L8.75 18.75H23.75V21.25H8.75C7.8125 21.25 7.10417 20.8388 6.625 20.0163C6.14583 19.1938 6.125 18.3758 6.5625 17.5625L8.25 14.5L3.75 5H1.25V2.5H5.3125L6.5 5Z" fill="white"/>
</svg>
