<svg width="47" height="71" viewBox="0 0 47 71" fill="none" xmlns="http://www.w3.org/2000/svg">
<g clip-path="url(#clip0_161_468)">
<path d="M28.5704 46.8691C28.6676 48.5105 28.1669 49.9278 27.0617 51.1494C26.637 51.6189 26.3011 52.1698 25.822 52.7153C25.1999 52.7962 24.8883 53.0042 24.8437 53.6036C24.826 53.8412 24.5549 54.1784 24.3255 54.2599C23.4947 54.5552 22.6407 54.7984 21.7797 54.9896C21.0392 55.154 20.4904 55.4879 20.0846 56.1602C19.9136 56.4435 19.4977 56.7079 19.1705 56.7389C18.3218 56.8193 17.8936 57.4739 17.4182 57.9827C16.9099 58.5266 16.6003 59.2499 15.6802 59.1494C15.5904 59.1395 15.4649 59.2638 15.3892 59.3541C15.0738 59.7309 14.6631 60.0739 14.4848 60.511C14.0359 61.6119 13.1066 62.3673 12.6027 63.4705C12.1586 64.4425 12.0782 65.4071 11.8677 66.3793C11.7672 66.8435 11.6812 67.3795 11.814 67.8129C12.1617 68.9474 12.6333 70.0433 13.0556 71.1546C10.8508 71.1546 8.64611 71.1546 6.36379 71.0998C6.18576 70.8999 6.11538 70.6746 5.97986 70.623C5.26295 70.3505 5.23198 69.7872 5.19398 69.1329C5.15614 68.4813 4.94465 67.8394 4.80385 67.1944C4.62587 66.3793 4.3798 65.5754 4.83919 64.7547C4.94925 64.558 4.84667 64.2511 4.88554 64.0018C5.02012 63.1387 5.16645 62.2772 5.33041 61.4194C5.34973 61.3183 5.50781 61.2456 5.59846 61.1565C5.78908 60.9692 5.97991 60.782 6.16665 60.5908C6.98397 59.7539 7.16528 58.4709 8.15427 57.7422C8.40023 57.561 8.52344 57.2185 8.72778 56.9708C9.25329 56.3337 9.68722 55.5388 10.3521 55.1193C11.2694 54.5403 12.3499 54.2287 13.049 53.3075C13.1514 53.1725 13.3261 53.0795 13.4847 53.0038C14.3008 52.6136 15.1322 52.2548 15.9402 51.8486C17.109 51.261 18.3978 50.8094 19.3887 49.9952C20.6842 48.9308 22.1767 48.6742 23.6865 48.4174C24.3113 48.3111 24.8932 48.2597 25.4091 47.8548C25.5468 47.7468 25.7823 47.7517 25.9756 47.7316C26.624 47.6641 27.3628 47.9599 27.8112 47.145C27.9094 46.9666 28.3094 46.9567 28.5704 46.8691Z" fill="white"/>
<path d="M25.3501 57.6794C27.825 58.7609 29.1907 60.9462 30.595 63.0751C32.3386 65.7184 34.0346 68.3936 35.7694 71.1049C30.4597 71.1547 25.1319 71.1547 19.7257 71.0963C19.3076 70.2758 19.3604 69.3117 18.476 68.8201C18.361 68.7561 18.3836 68.4019 18.3802 68.1815C18.373 67.7158 18.4621 67.2369 18.3831 66.7864C18.2338 65.9362 18.5581 65.214 19.3374 64.8931C20.0517 64.599 20.1825 64.0943 19.782 63.3639C19.7142 63.2401 19.7699 62.9106 19.8694 62.853C20.5354 62.4676 20.5278 61.3779 21.4837 61.3005C21.5639 61.294 21.647 61.1139 21.699 61.0006C22.1466 60.0252 22.9854 59.5643 23.9374 59.2348C24.1397 59.1648 24.3598 59.0499 24.4913 58.889C24.8032 58.5071 25.0669 58.0852 25.3501 57.6794Z" fill="white"/>
<path d="M29.8078 44.5857C29.7349 44.6691 29.662 44.7525 29.4995 44.8278C28.9394 44.6984 28.4459 44.4195 28.0024 44.4847C26.5583 44.6971 25.1168 44.9746 23.7047 45.3446C22.5961 45.635 21.4739 45.9385 20.5731 46.7701C20.1307 47.1785 19.6423 47.5822 18.8782 47.3786C18.5598 47.2938 18.1111 47.6368 17.7439 47.8285C17.4806 47.9661 17.2751 48.2208 17.008 48.3451C15.8406 48.8886 14.4795 49.022 13.5552 50.0825C13.2828 50.3951 12.9046 50.6249 12.5479 50.8492C12.2324 51.0475 11.8854 51.2 11.5408 51.3449C11.3102 51.4419 10.9241 51.416 10.8397 51.5722C10.2906 52.5886 8.57949 52.2888 8.44358 53.7417C8.43991 53.7809 8.37782 53.8179 8.33822 53.85C7.61481 54.4367 6.85801 54.9866 6.17522 55.6178C5.38271 56.3504 4.56755 57.0881 3.92811 57.9487C3.45432 58.5863 3.27675 59.4395 2.91078 60.1679C2.45611 61.0729 1.93095 61.9418 1.46456 62.8412C1.35385 63.0547 1.29305 63.3339 1.31694 63.5719C1.42095 64.6083 1.56364 65.6408 1.69567 66.6743C1.70852 66.7749 1.73519 66.8761 1.77146 66.9708C2.30573 68.3661 2.84272 69.7603 3.37905 71.1548C2.30843 71.1548 1.23781 71.1548 0.153564 71.1548C0.153564 66.9235 0.153564 62.6923 0.206955 58.3831C0.938276 57.7916 1.62795 57.2927 2.28573 56.7542C2.44645 56.6226 2.49012 56.3537 2.60921 56.1615C3.00432 55.5238 3.36994 54.8621 3.82187 54.2673C4.24798 53.7066 4.75931 53.2094 5.25356 52.7045C5.42117 52.5332 5.6429 52.4091 5.8547 52.2902C6.06823 52.1703 6.33327 52.1252 6.51856 51.9755C7.59436 51.1066 8.61173 50.1576 9.73278 49.3545C10.4611 48.8327 11.3349 48.5182 12.1388 48.1017C13.5216 47.3852 14.9053 46.6704 16.2791 45.9368C16.8577 45.6278 17.3797 45.1856 17.9845 44.9578C19.0713 44.5484 20.2709 44.3955 21.2962 43.8792C22.6884 43.1782 24.323 43.5731 25.6485 42.727C25.7433 42.6666 25.8987 42.7037 26.0257 42.6928C26.3035 42.6689 26.6706 42.7494 26.8444 42.601C27.9049 41.6949 29.0666 42.3906 30.1709 42.3482C31.3425 42.3031 32.53 42.5159 33.6918 42.409C35.3384 42.2575 36.9593 41.9553 38.5743 42.6058C38.9879 42.7723 39.4679 42.7716 39.9173 42.8477C39.468 43.6251 38.7614 43.932 37.9058 43.9343C35.9198 43.9398 33.9328 43.8976 31.9484 43.9523C31.3374 43.9692 30.7333 44.237 30.0246 44.4115C29.8848 44.484 29.8463 44.5348 29.8078 44.5857Z" fill="white"/>
<path d="M3.45102 71.1546C2.84276 69.7602 2.30577 68.366 1.77151 66.9707C1.73524 66.876 1.70857 66.7747 1.69572 66.6741C1.56368 65.6407 1.42099 64.6082 1.31698 63.5718C1.2931 63.3338 1.35389 63.0546 1.46461 62.8411C1.93099 61.9417 2.45615 61.0728 2.91083 60.1678C3.27679 59.4394 3.45436 58.5861 3.92815 57.9485C4.5676 57.088 5.38276 56.3502 6.17526 55.6177C6.85805 54.9865 7.61485 54.4366 8.33827 53.8499C8.37786 53.8178 8.43995 53.7808 8.44362 53.7415C8.57953 52.2887 10.2907 52.5885 10.8398 51.5721C10.9242 51.4158 11.3103 51.4418 11.5408 51.3448C11.8854 51.1999 12.2324 51.0474 12.5479 50.849C12.9046 50.6248 13.2828 50.395 13.5552 50.0824C14.4795 49.0219 15.8406 48.8884 17.008 48.345C17.2751 48.2206 17.4806 47.9659 17.7439 47.8284C18.1111 47.6366 18.5598 47.2937 18.8783 47.3785C19.6424 47.582 20.1307 47.1783 20.5732 46.7699C21.474 45.9384 22.5961 45.6348 23.7047 45.3444C25.1169 44.9745 26.5584 44.697 28.0024 44.4846C28.446 44.4193 28.9394 44.6982 29.4613 44.8446C28.9931 45.3907 28.6354 45.9912 28.5857 46.8099C28.3094 46.9567 27.9093 46.9667 27.8112 47.1451C27.3628 47.96 26.624 47.6642 25.9755 47.7317C25.7822 47.7518 25.5468 47.7468 25.4091 47.8548C24.8932 48.2598 24.3113 48.3112 23.6865 48.4175C22.1767 48.6743 20.6842 48.9309 19.3887 49.9953C18.3978 50.8095 17.109 51.2611 15.9402 51.8487C15.1321 52.2548 14.3008 52.6137 13.4846 53.0038C13.3261 53.0796 13.1514 53.1726 13.049 53.3075C12.3499 54.2288 11.2694 54.5404 10.352 55.1193C9.68721 55.5389 9.25328 56.3338 8.72776 56.9709C8.52343 57.2186 8.40022 57.5611 8.15426 57.7423C7.16527 58.471 6.98396 59.754 6.16663 60.5909C5.9799 60.7821 5.78907 60.9693 5.59844 61.1566C5.50779 61.2457 5.34972 61.3184 5.3304 61.4195C5.16644 62.2773 5.0201 63.1388 4.88553 64.0019C4.84666 64.2512 4.94924 64.5581 4.83918 64.7547C4.37978 65.5754 4.62586 66.3794 4.80383 67.1945C4.94464 67.8394 5.15613 68.4813 5.19397 69.1329C5.23196 69.7873 5.26294 70.3506 5.97985 70.6231C6.11537 70.6746 6.18575 70.8999 6.29179 71.0998C5.37258 71.1546 4.44776 71.1546 3.45102 71.1546Z" fill="white"/>
<path d="M25.3255 57.6294C25.067 58.0851 24.8033 58.5069 24.4913 58.8889C24.3599 59.0498 24.1397 59.1647 23.9374 59.2347C22.9855 59.5642 22.1467 60.0251 21.6991 61.0005C21.6471 61.1138 21.5639 61.2939 21.4838 61.3004C20.5278 61.3778 20.5355 62.4675 19.8695 62.8529C19.7699 62.9105 19.7142 63.24 19.782 63.3638C20.1825 64.0942 20.0517 64.5989 19.3375 64.893C18.5581 65.2139 18.2339 65.9361 18.3831 66.7863C18.4622 67.2368 18.373 67.7157 18.3802 68.1814C18.3836 68.4018 18.361 68.756 18.476 68.8199C19.3604 69.3116 19.3077 70.2757 19.6537 71.0962C17.5066 71.1546 15.3531 71.1546 13.1276 71.1546C12.6333 70.0433 12.1617 68.9474 11.814 67.8129C11.6812 67.3795 11.7672 66.8436 11.8677 66.3794C12.0782 65.4071 12.1586 64.4425 12.6027 63.4705C13.1066 62.3674 14.0359 61.6119 14.4848 60.5111C14.6631 60.074 15.0738 59.731 15.3892 59.3542C15.4649 59.2638 15.5904 59.1396 15.6802 59.1494C16.6003 59.2499 16.9099 58.5266 17.4182 57.9827C17.8936 57.474 18.3218 56.8193 19.1705 56.7389C19.4977 56.7079 19.9136 56.4435 20.0846 56.1603C20.4904 55.488 21.0392 55.1541 21.7797 54.9897C22.6407 54.7985 23.4947 54.5552 24.3255 54.26C24.5549 54.1784 24.826 53.8412 24.8437 53.6036C24.8883 53.0043 25.1999 52.7963 25.7821 52.7458C25.2035 53.8991 24.8226 55.1295 24.9146 56.4594C24.9409 56.84 25.1667 57.2065 25.3255 57.6294Z" fill="white"/>
<path d="M39.9433 42.7971C39.4679 42.7715 38.9879 42.7722 38.5743 42.6057C36.9593 41.9552 35.3384 42.2574 33.6918 42.4089C32.53 42.5158 31.3425 42.303 30.1709 42.3481C29.0666 42.3905 27.9049 41.6949 26.8444 42.6009C26.6706 42.7493 26.3035 42.6688 26.0257 42.6927C25.8987 42.7036 25.7433 42.6665 25.6485 42.727C24.3231 43.573 22.6885 43.1781 21.2962 43.8791C20.271 44.3954 19.0714 44.5483 17.9845 44.9577C17.3797 45.1855 16.8577 45.6277 16.2791 45.9367C14.9054 46.6703 13.5216 47.3851 12.1389 48.1016C11.3349 48.5181 10.4611 48.8326 9.73279 49.3544C8.61174 50.1575 7.59437 51.1065 6.51857 51.9755C6.33328 52.1251 6.06824 52.1702 5.8547 52.2901C5.6429 52.409 5.42118 52.5331 5.25357 52.7044C4.75932 53.2093 4.24799 53.7065 3.82188 54.2672C3.36995 54.862 3.00433 55.5237 2.60922 56.1614C2.49012 56.3536 2.44646 56.6226 2.28574 56.7541C1.62796 57.2926 0.938284 57.7916 0.206963 58.3105C0.153572 56.7658 0.153572 55.2158 0.211074 53.5924C0.480542 53.4388 0.730683 53.4062 0.898122 53.2703C1.81234 52.5283 2.70794 51.7628 3.60584 51.0005C3.81362 50.8241 4.0066 50.4698 4.20433 50.4713C4.82375 50.4761 4.93856 50.0219 5.16544 49.6295C5.28612 49.4207 5.42922 49.1816 5.62587 49.071C5.92625 48.9021 6.30651 48.8785 6.60926 48.7125C7.58582 48.1771 8.54508 47.6094 9.50379 47.0417C9.64098 46.9605 9.73957 46.8123 9.85393 46.6931C10.0827 46.4545 10.2683 46.1298 10.5459 45.9909C11.3809 45.573 12.243 45.206 13.1107 44.8602C13.7989 44.5859 14.5899 44.4963 15.1959 44.1055C16.4711 43.2833 17.8649 42.799 19.2804 42.3402C19.5441 42.2547 19.8904 42.2931 20.0794 42.1322C20.8232 41.4995 21.7635 41.5267 22.6213 41.3091C23.4986 41.0865 24.4306 41.0709 25.1919 40.4803C25.2841 40.4087 25.4287 40.3832 25.5511 40.3768C26.7758 40.3133 27.9504 39.7072 29.2179 40.0493C29.4158 40.1027 29.6594 39.952 29.8835 39.9442C30.7259 39.9147 31.5689 39.9002 32.4118 39.891C32.7301 39.8875 33.0515 39.9469 33.3669 39.9206C34.3771 39.8362 35.3836 39.6685 36.3945 39.6402C37.4232 39.6114 38.4552 39.7266 39.4861 39.7349C39.6449 39.7362 39.8057 39.5026 39.9656 39.3777C40.6187 40.4999 40.7036 41.6228 39.9433 42.7971Z" fill="white"/>
<path d="M39.9576 39.3189C39.8057 39.5026 39.645 39.7362 39.4861 39.7349C38.4552 39.7265 37.4232 39.6114 36.3946 39.6402C35.3837 39.6684 34.3772 39.8362 33.3669 39.9206C33.0516 39.9469 32.7302 39.8875 32.4118 39.891C31.569 39.9001 30.726 39.9147 29.8836 39.9442C29.6595 39.952 29.4158 40.1027 29.218 40.0493C27.9505 39.7072 26.7758 40.3133 25.5511 40.3768C25.4287 40.3831 25.2842 40.4087 25.1919 40.4802C24.4306 41.0709 23.4987 41.0865 22.6213 41.309C21.7635 41.5266 20.8232 41.4994 20.0795 42.1322C19.8904 42.293 19.5442 42.2547 19.2804 42.3402C17.8649 42.799 16.4712 43.2832 15.1959 44.1055C14.5899 44.4962 13.799 44.5859 13.1108 44.8602C12.2431 45.206 11.3809 45.573 10.5459 45.9909C10.2684 46.1298 10.0828 46.4544 9.85399 46.693C9.73963 46.8123 9.64103 46.9605 9.50385 47.0417C8.54513 47.6093 7.58587 48.1771 6.60931 48.7125C6.30657 48.8785 5.9263 48.9021 5.62592 49.071C5.42928 49.1816 5.28617 49.4207 5.16549 49.6294C4.93861 50.0219 4.8238 50.476 4.20438 50.4713C4.00666 50.4698 3.81367 50.8241 3.60589 51.0005C2.70799 51.7628 1.8124 52.5282 0.898175 53.2703C0.730736 53.4062 0.480595 53.4388 0.211127 53.5199C0.153625 53.2555 0.153625 52.9903 0.153625 52.6588C1.55131 50.5884 2.949 48.5843 4.42389 46.5991C4.75099 46.5535 5.04366 46.5514 5.24282 46.4129C5.85997 45.9837 6.40667 45.4448 7.04483 45.0549C8.09914 44.4108 9.20113 43.8453 10.2877 43.2555C11.1082 42.81 11.9038 42.2937 12.768 41.9599C14.0761 41.4548 15.5546 41.2872 16.7343 40.5886C17.7553 39.984 18.8255 39.6911 19.8962 39.3584C21.4101 38.8879 22.9557 38.4718 24.5176 38.22C26.1006 37.9649 27.6445 37.4575 29.3232 37.6835C30.2516 37.8085 31.2507 37.3898 32.22 37.2293C32.3537 37.2072 32.4993 37.2705 32.6402 37.2774C32.952 37.2927 33.2691 37.336 33.5754 37.2979C34.1277 37.2294 34.6733 37.0353 35.2226 37.0318C35.7867 37.0281 36.3534 37.2727 36.9162 37.262C38.1931 37.2378 39.4439 37.2678 40.5976 37.9113C40.3074 38.3248 39.6702 38.5692 39.9576 39.3189Z" fill="white"/>
<path d="M4.01331 14.3945C5.31377 9.14539 8.75456 5.8686 13.6402 4.04776C15.1723 3.47678 16.849 3.28824 18.4694 2.97683C18.8797 2.89798 19.3305 2.99868 19.7582 3.05256C21.4457 3.26512 23.1716 3.33248 24.8088 3.74973C27.4438 4.42126 30.0894 4.05816 32.7293 4.17048C34.2173 4.23379 35.382 5.02332 36.303 6.17117C36.6214 6.56809 36.938 6.98097 37.1697 7.43128C37.7733 8.60394 37.2676 9.67406 36.6858 10.781C35.911 10.733 35.2409 10.6047 34.5654 10.5621C34.2951 10.545 34.0137 10.7186 33.7363 10.8018C33.4889 10.8761 33.1151 11.0859 33.0129 10.9935C32.4924 10.5233 31.9249 10.7053 31.4196 10.8615C30.8727 11.0305 30.4053 11.2745 29.7935 11.0148C29.3907 10.8438 28.8838 10.818 28.44 10.8702C27.525 10.9778 26.6069 11.1263 25.7163 11.3594C24.6942 11.6268 23.7323 12.0834 22.6421 12.1352C21.3965 12.1943 20.158 12.3893 18.914 12.4973C17.1044 12.6545 15.2946 12.8316 13.481 12.9087C12.6844 12.9425 12.0286 13.552 11.1693 13.3222C10.7702 13.2155 10.2947 13.3653 9.85971 13.4357C9.29456 13.527 8.73474 13.6525 8.17367 13.7684C7.95169 13.8143 7.72629 13.8559 7.51329 13.9308C6.99387 14.1134 6.48937 14.3441 5.96223 14.4975C5.59426 14.6046 5.15565 14.5278 4.82617 14.6915C4.38094 14.9127 4.18286 14.7755 4.01331 14.3945Z" fill="white"/>
<path d="M3.34881 23.5094C3.31669 21.992 3.28456 20.4745 3.35865 18.9098C3.71842 18.8486 4.04576 18.9322 4.21292 18.804C4.99307 18.2056 5.84009 18.1011 6.80801 17.9981C8.77287 17.7892 10.6921 17.1772 12.6528 16.8871C14.4701 16.6183 16.3165 16.4336 18.151 16.4264C20.5919 16.4169 22.9075 15.5263 25.3512 15.5686C26.2728 15.5846 27.196 15.2761 28.1248 15.1737C28.8328 15.0957 29.5505 15.1003 30.2642 15.0845C31.3284 15.0609 32.3931 15.0338 33.4573 15.0423C34.3002 15.049 35.144 15.1499 35.9851 15.1265C36.5296 15.1113 37.1973 15.6862 37.6135 14.8574C37.9278 16.5195 38.4922 18.0727 39.5425 19.4866C38.9299 19.5649 38.3392 19.5889 37.7525 19.5498C36.7476 19.4829 35.7468 19.3476 34.7415 19.2962C33.9627 19.2563 33.1793 19.3194 32.3986 19.303C31.4198 19.2825 30.4404 19.176 29.4639 19.2033C28.6547 19.2259 27.8513 19.4079 27.0421 19.485C25.7921 19.6042 24.5377 19.6775 23.2888 19.8054C22.8414 19.8512 22.4084 20.026 21.9617 20.0945C20.9028 20.257 19.8374 20.3764 18.7794 20.5434C18.3123 20.6171 17.8577 20.8555 17.3955 20.8612C15.8892 20.8799 14.4062 20.9885 12.9428 21.3946C12.037 21.6459 11.0944 21.7596 10.176 21.9692C9.19791 22.1925 8.23601 22.4929 7.25285 22.6866C6.73988 22.7877 6.24387 23.2911 5.66214 22.8287C5.59684 22.7768 5.3617 22.8525 5.26951 22.9387C4.71873 23.4535 4.06377 23.5751 3.34881 23.5094Z" fill="white"/>
<path d="M5.84126 32.3293C5.26396 30.9816 4.68666 29.6339 4.16077 28.2183C4.95468 27.7629 5.72172 27.5911 6.57905 27.5718C7.38827 27.5536 8.19341 27.2581 8.99596 27.0661C9.48595 26.9488 9.97804 26.8253 10.4506 26.6531C11.1308 26.4052 11.7719 25.9923 12.469 25.8597C13.9809 25.5723 15.519 25.4265 17.0436 25.2036C17.4427 25.1452 17.8271 24.9681 18.2263 24.9296C19.2964 24.8266 20.4417 24.98 21.427 24.6442C22.8959 24.1435 24.4048 24.1876 25.8465 24.218C27.0452 24.2432 28.0983 23.0587 29.3194 23.8946C29.3524 23.9172 29.4516 23.8204 29.5248 23.8082C30.46 23.6514 31.438 23.9443 32.3533 23.5353C32.4206 23.5053 32.5392 23.6183 32.6372 23.6268C33.1323 23.6698 33.6302 23.6853 34.1241 23.7385C34.7622 23.8073 35.3975 23.902 36.0338 23.9871C36.2775 24.0197 36.5201 24.0606 36.7642 24.0903C37.1014 24.1313 37.4481 24.1294 37.7754 24.2097C38.4034 24.3639 39.0206 24.563 39.6423 24.7435C40.6515 25.9376 41.6608 27.1316 42.6986 28.4119C42.7641 28.5363 42.8009 28.5744 42.8377 28.6126C42.845 28.6375 42.8522 28.6623 42.8056 28.7272C42.1186 28.6886 41.4822 28.6307 40.8532 28.5266C39.8207 28.3557 38.7987 28.1104 37.762 27.9784C36.6228 27.8335 35.4732 27.7332 34.3257 27.7001C32.7294 27.654 31.1307 27.6865 29.5329 27.6895C28.9592 27.6905 28.38 27.6555 27.8127 27.7202C26.3092 27.8916 24.8111 28.1104 23.3103 28.3059C22.9085 28.3582 22.5001 28.3695 22.1029 28.4435C21.4154 28.5715 20.7392 28.767 20.049 28.8728C19.3079 28.9864 18.5574 29.0496 17.8086 29.0981C16.7351 29.1675 15.768 29.9431 14.6185 29.5664C14.4787 29.5207 14.1202 29.7134 14.0877 29.8498C13.9431 30.4572 13.5395 30.4925 13.0416 30.4844C12.7728 30.48 12.4309 30.5097 12.2453 30.6694C11.6226 31.2054 10.8641 31.2424 10.1262 31.3756C9.70222 31.4521 9.27198 31.4992 8.85291 31.5962C7.84641 31.829 6.84482 32.0835 5.84126 32.3293Z" fill="white"/>
<path d="M37.6024 14.8021C37.1972 15.6863 36.5295 15.1114 35.985 15.1266C35.1439 15.15 34.3002 15.0491 33.4572 15.0424C32.393 15.0339 31.3284 15.0611 30.2642 15.0846C29.5504 15.1004 28.8327 15.0958 28.1248 15.1738C27.196 15.2762 26.2727 15.5847 25.3511 15.5687C22.9074 15.5264 20.5918 16.4171 18.1509 16.4266C16.3165 16.4337 14.4701 16.6184 12.6528 16.8872C10.692 17.1773 8.77283 17.7893 6.80797 17.9983C5.84005 18.1012 4.99302 18.2058 4.21288 18.8041C4.04572 18.9323 3.71837 18.8487 3.39618 18.8564C3.54581 17.4042 3.76409 15.9583 3.99782 14.4535C4.18284 14.7756 4.38093 14.9128 4.82615 14.6916C5.15563 14.5279 5.59424 14.6047 5.96222 14.4977C6.48935 14.3443 6.99386 14.1135 7.51327 13.931C7.72627 13.8561 7.95167 13.8144 8.17365 13.7685C8.73472 13.6526 9.29454 13.5271 9.85969 13.4358C10.2947 13.3655 10.7702 13.2156 11.1693 13.3224C12.0285 13.5521 12.6844 12.9427 13.481 12.9088C15.2946 12.8317 17.1044 12.6546 18.914 12.4975C20.158 12.3894 21.3965 12.1945 22.642 12.1353C23.7323 12.0836 24.6942 11.627 25.7162 11.3595C26.6069 11.1265 27.525 10.9779 28.44 10.8704C28.8837 10.8182 29.3907 10.8439 29.7935 11.0149C30.4053 11.2747 30.8727 11.0307 31.4196 10.8616C31.9249 10.7054 32.4924 10.5235 33.0129 10.9937C33.1151 11.086 33.4889 10.8763 33.7363 10.802C34.0137 10.7187 34.2951 10.5452 34.5654 10.5622C35.2409 10.6048 35.911 10.7331 36.6555 10.8264C36.4461 11.5908 36.5229 12.3184 36.8856 13.0481C37.1577 13.5957 37.3587 14.1791 37.6024 14.8021Z" fill="white"/>
<path d="M40.6377 37.8747C39.4438 37.2678 38.1931 37.2378 36.9162 37.262C36.3533 37.2727 35.7866 37.0281 35.2225 37.0318C34.6732 37.0353 34.1277 37.2294 33.5754 37.2979C33.269 37.3359 32.952 37.2927 32.6402 37.2774C32.4993 37.2705 32.3537 37.2072 32.22 37.2293C31.2506 37.3898 30.2515 37.8085 29.3232 37.6835C27.6445 37.4575 26.1005 37.9649 24.5175 38.22C22.9557 38.4718 21.4101 38.8879 19.8961 39.3584C18.8255 39.6911 17.7552 39.984 16.7343 40.5886C15.5545 41.2872 14.076 41.4547 12.768 41.9599C11.9038 42.2937 11.1082 42.81 10.2876 43.2554C9.20108 43.8453 8.0991 44.4108 7.04478 45.0549C6.40663 45.4448 5.85993 45.9837 5.24278 46.4128C5.04361 46.5513 4.75095 46.5534 4.46918 46.5714C5.6466 44.8131 6.6783 43.0117 7.27775 40.9247C7.87928 41.1102 8.42946 41.0493 8.73237 40.5868C9.23459 39.8199 9.92387 39.6137 10.7555 39.5845C11.0008 39.5759 11.2506 39.4652 11.4833 39.3656C12.466 38.9448 13.4284 38.4716 14.4259 38.0913C15.6465 37.626 16.8937 37.2313 18.132 36.8142C18.3459 36.7421 18.5835 36.6416 18.7926 36.673C19.465 36.7742 19.9506 36.4437 20.4641 36.0912C20.7367 35.904 21.0898 35.787 21.4204 35.7425C22.8644 35.5479 24.3651 35.7151 25.7298 35.018C25.8767 34.943 26.0796 34.9676 26.2567 34.966C27.3593 34.9561 28.4657 35.0082 29.5634 34.9313C30.8458 34.8415 32.1187 34.4987 33.4037 34.9061C33.4954 34.9352 33.6039 34.9201 33.7036 34.9127C34.8667 34.8263 36.0296 34.6679 37.1926 34.6676C38.5147 34.6671 39.8841 34.4335 41.1249 35.1544C40.8497 35.362 40.5744 35.5696 40.2985 35.7777C41.1877 36.8244 41.2048 36.9189 40.6377 37.8747Z" fill="white"/>
<path d="M41.1667 35.1191C39.8841 34.4335 38.5147 34.6671 37.1926 34.6675C36.0296 34.6679 34.8667 34.8262 33.7036 34.9126C33.6039 34.92 33.4954 34.9351 33.4037 34.9061C32.1187 34.4986 30.8458 34.8414 29.5634 34.9313C28.4658 35.0081 27.3593 34.9561 26.2567 34.9659C26.0797 34.9675 25.8768 34.943 25.7299 35.018C24.3651 35.7151 22.8644 35.5478 21.4204 35.7424C21.0898 35.7869 20.7367 35.9039 20.4641 36.0911C19.9506 36.4437 19.4651 36.7742 18.7926 36.673C18.5836 36.6415 18.346 36.7421 18.132 36.8141C16.8937 37.2312 15.6465 37.6259 14.426 38.0912C13.4284 38.4715 12.466 38.9448 11.4833 39.3655C11.2506 39.4652 11.0008 39.5759 10.7555 39.5845C9.92389 39.6136 9.23461 39.8198 8.73239 40.5867C8.42948 41.0493 7.8793 41.1101 7.29346 40.8673C7.34315 39.5486 7.44542 38.2542 7.61224 36.889C8.33283 37.2385 8.87532 37.1036 9.43412 36.571C10.3353 35.712 11.5747 35.5795 12.698 35.3088C13.7843 35.047 14.9154 35.0916 16.0263 34.7075C17.6888 34.1329 19.4721 33.991 21.1463 33.3389C22.6292 32.7614 24.2802 32.7714 25.8425 32.3763C27.4253 31.976 29.1159 31.9776 30.7638 31.8813C31.6037 31.8322 32.4554 32.0136 33.2983 31.9851C34.4378 31.9465 35.5736 31.8016 36.7117 31.7117C37.134 31.6783 37.5634 31.6206 37.9808 31.6628C38.8443 31.7503 39.7019 31.8973 40.5619 32.0199C40.7478 32.6135 40.9693 33.1988 41.1072 33.8035C41.2013 34.2163 41.1788 34.6562 41.1667 35.1191Z" fill="white"/>
<path d="M40.6056 31.9906C39.7019 31.8975 38.8443 31.7504 37.9808 31.663C37.5634 31.6207 37.134 31.6785 36.7117 31.7119C35.5736 31.8018 34.4378 31.9466 33.2983 31.9852C32.4554 32.0138 31.6037 31.8324 30.7638 31.8814C29.1159 31.9777 27.4253 31.9762 25.8425 32.3765C24.2802 32.7716 22.6292 32.7616 21.1463 33.3391C19.4721 33.9911 17.6888 34.1331 16.0263 34.7077C14.9154 35.0917 13.7843 35.0472 12.698 35.309C11.5747 35.5797 10.3353 35.7122 9.43412 36.5711C8.87532 37.1037 8.33283 37.2386 7.62115 36.8175C7.38751 36.0357 7.20952 35.2548 7.08167 34.4099C7.45472 34.3414 7.78099 34.3646 8.09969 34.3254C8.46067 34.2809 8.82937 34.22 9.16802 34.0936C9.52681 33.9598 9.84691 33.7246 10.1972 33.5628C10.6313 33.3623 11.0812 33.1969 11.5201 33.0067C11.8923 32.8455 12.2432 32.5932 12.6302 32.5149C14.3455 32.1678 16.0696 31.8639 17.7922 31.5536C20.0999 31.1379 22.4073 30.7204 24.7187 30.3267C25.3046 30.2269 25.9073 30.231 26.4979 30.1539C26.736 30.1227 27.0321 30.068 27.1813 29.9092C27.6649 29.3945 28.1392 29.1826 28.7929 29.6197C28.9571 29.7294 29.2718 29.7462 29.458 29.666C31.0459 28.9825 32.7259 29.2605 34.3478 29.2786C36.3092 29.3005 38.2721 29.6058 40.2245 29.8643C41.2259 29.9968 42.2057 30.2943 43.1953 30.5172C42.5977 30.8766 42.0035 31.242 41.4008 31.5924C41.16 31.7324 40.9003 31.8392 40.6056 31.9906Z" fill="white"/>
<path d="M39.6325 24.6884C39.0206 24.5629 38.4034 24.3637 37.7754 24.2095C37.4482 24.1292 37.1014 24.1311 36.7642 24.0901C36.5202 24.0605 36.2775 24.0195 36.0338 23.9869C35.3975 23.9019 34.7622 23.8072 34.1241 23.7384C33.6302 23.6851 33.1324 23.6696 32.6372 23.6267C32.5392 23.6182 32.4206 23.5051 32.3534 23.5352C31.438 23.9442 30.4601 23.6512 29.5248 23.808C29.4517 23.8203 29.3525 23.9171 29.3194 23.8945C28.0984 23.0585 27.0452 24.2431 25.8466 24.2178C24.4049 24.1874 22.896 24.1434 21.4271 24.644C20.4418 24.9798 19.2964 24.8265 18.2263 24.9295C17.8271 24.9679 17.4427 25.145 17.0436 25.2034C15.519 25.4263 13.9809 25.5722 12.469 25.8596C11.7719 25.9921 11.1308 26.405 10.4507 26.6529C9.97806 26.8252 9.48598 26.9486 8.99599 27.0659C8.19343 27.258 7.3883 27.5534 6.57907 27.5716C5.72174 27.5909 4.95471 27.7627 4.15111 28.1571C3.9033 27.3264 3.71657 26.4888 3.59894 25.5869C4.31867 25.4246 4.9671 25.3067 5.62047 25.2335C6.64831 25.1185 7.68781 25.0852 8.70633 24.918C9.39126 24.8057 10.0402 24.4877 10.7198 24.3222C12.2512 23.9492 13.6897 23.2498 15.2986 23.1309C16.6294 23.0327 17.9484 22.772 19.2722 22.58C19.4222 22.5582 19.5681 22.5083 19.7179 22.4834C21.6686 22.1595 23.6196 21.8373 25.571 21.5176C25.6445 21.5056 25.7229 21.5246 25.799 21.5272C26.9807 21.568 28.1704 21.7126 29.3422 21.622C30.7282 21.5149 32.0782 21.4811 33.4809 21.5559C35.4308 21.66 37.3767 22.2722 39.3515 21.8488C38.8947 22.831 38.8998 23.7677 39.6325 24.6884Z" fill="white"/>
<path d="M39.3494 21.8413C37.3767 22.2724 35.4308 21.6601 33.4808 21.5561C32.0782 21.4813 30.7282 21.5151 29.3421 21.6222C28.1704 21.7128 26.9807 21.5682 25.799 21.5274C25.7228 21.5248 25.6445 21.5058 25.571 21.5178C23.6196 21.8375 21.6686 22.1597 19.7178 22.4836C19.5681 22.5084 19.4222 22.5584 19.2722 22.5802C17.9484 22.7721 16.6294 23.0328 15.2986 23.1311C13.6897 23.2499 12.2512 23.9494 10.7198 24.3224C10.0402 24.4879 9.39123 24.8058 8.7063 24.9182C7.68778 25.0853 6.64828 25.1187 5.62044 25.2337C4.96707 25.3068 4.31865 25.4248 3.60165 25.5229C3.52569 25.4561 3.51608 25.3892 3.53911 25.2556C3.54726 25.1419 3.52279 25.0948 3.49832 25.0477C3.44703 24.5803 3.39574 24.1129 3.34662 23.5775C4.06374 23.5752 4.71871 23.4536 5.26949 22.9388C5.36168 22.8526 5.59682 22.7769 5.66212 22.8288C6.24384 23.2913 6.73986 22.7879 7.25283 22.6868C8.23599 22.493 9.19789 22.1926 10.176 21.9694C11.0944 21.7598 12.037 21.6461 12.9428 21.3947C14.4061 20.9886 15.8891 20.88 17.3955 20.8614C17.8577 20.8556 18.3123 20.6173 18.7794 20.5435C19.8374 20.3765 20.9028 20.2571 21.9616 20.0946C22.4084 20.0261 22.8414 19.8514 23.2888 19.8056C24.5377 19.6777 25.7921 19.6043 27.042 19.4851C27.8512 19.408 28.6547 19.226 29.4638 19.2034C30.4403 19.1761 31.4198 19.2826 32.3986 19.3031C33.1792 19.3195 33.9627 19.2565 34.7414 19.2963C35.7468 19.3477 36.7476 19.4831 37.7525 19.55C38.3392 19.589 38.9299 19.565 39.5575 19.5362C39.5922 20.1948 39.5883 20.8865 39.5042 21.6342C39.3937 21.7357 39.3636 21.7811 39.3334 21.8266C39.3334 21.8266 39.3474 21.8337 39.3494 21.8413Z" fill="white"/>
<path d="M43.193 30.5088C42.2057 30.2942 41.2259 29.9968 40.2245 29.8642C38.2721 29.6058 36.3092 29.3005 34.3478 29.2785C32.7259 29.2604 31.0459 28.9825 29.458 29.6659C29.2718 29.7461 28.9571 29.7294 28.7929 29.6196C28.1392 29.1825 27.6649 29.3944 27.1813 29.9091C27.0321 30.0679 26.736 30.1227 26.4979 30.1538C25.9073 30.2309 25.3046 30.2268 24.7187 30.3266C22.4073 30.7203 20.0998 31.1378 17.7922 31.5535C16.0696 31.8639 14.3455 32.1677 12.6301 32.5148C12.2432 32.5931 11.8923 32.8454 11.5201 33.0066C11.0812 33.1968 10.6312 33.3622 10.1972 33.5627C9.8469 33.7245 9.5268 33.9597 9.16801 34.0935C8.82936 34.2199 8.46066 34.2808 8.09968 34.3253C7.78098 34.3645 7.45471 34.3414 7.06617 34.3507C6.62385 33.7142 6.24712 33.0727 5.85583 32.3802C6.84483 32.0834 7.84641 31.829 8.85292 31.5961C9.27199 31.4991 9.70223 31.452 10.1262 31.3755C10.8641 31.2423 11.6226 31.2053 12.2453 30.6693C12.4309 30.5096 12.7728 30.48 13.0416 30.4843C13.5395 30.4924 13.9431 30.4572 14.0877 29.8497C14.1202 29.7133 14.4787 29.5206 14.6185 29.5664C15.768 29.943 16.7351 29.1675 17.8086 29.098C18.5574 29.0495 19.3079 28.9863 20.049 28.8727C20.7392 28.7669 21.4154 28.5714 22.1029 28.4434C22.5001 28.3694 22.9085 28.3582 23.3103 28.3059C24.8111 28.1104 26.3092 27.8915 27.8127 27.7201C28.38 27.6554 28.9592 27.6905 29.533 27.6894C31.1307 27.6865 32.7294 27.654 34.3258 27.7C35.4733 27.7332 36.6228 27.8334 37.762 27.9784C38.7987 28.1103 39.8208 28.3556 40.8532 28.5265C41.4822 28.6306 42.1187 28.6885 42.8176 28.7641C43.3088 29.164 43.6293 29.6066 43.3538 30.2983C43.2394 30.3998 43.2073 30.4463 43.1752 30.4927C43.1752 30.4927 43.1907 30.5004 43.193 30.5088Z" fill="white"/>
<path d="M43.2186 30.4851C43.2073 30.4462 43.2393 30.3997 43.3134 30.3413C43.3242 30.3787 43.2931 30.4281 43.2186 30.4851Z" fill="white"/>
<path d="M42.8347 28.571C42.8009 28.5743 42.7641 28.5362 42.7196 28.4577C42.7518 28.4547 42.7917 28.4921 42.8347 28.571Z" fill="white"/>
<path d="M29.8506 44.5665C29.8463 44.5347 29.8848 44.4838 29.9715 44.4216C29.9777 44.4561 29.9355 44.5018 29.8506 44.5665Z" fill="white"/>
<path d="M3.49707 25.0913C3.52279 25.0949 3.54727 25.142 3.54132 25.2049C3.50587 25.1921 3.50084 25.1635 3.49707 25.0913Z" fill="white"/>
<path d="M39.3772 21.8218C39.3636 21.781 39.3937 21.7356 39.4635 21.6765C39.4758 21.7143 39.4484 21.7657 39.3772 21.8218Z" fill="white"/>
</g>
<defs>
<clipPath id="clip0_161_468">
<rect width="47" height="71" fill="white"/>
</clipPath>
</defs>
</svg>
