<svg width="32" height="32" viewBox="0 0 32 32" fill="none" xmlns="http://www.w3.org/2000/svg">
<path d="M7.45065 28.5507C6.92798 28.028 6.66665 27.4 6.66665 26.6667C6.66665 25.9333 6.92798 25.3058 7.45065 24.784C7.97331 24.2622 8.60087 24.0009 9.33331 24C10.0658 23.9991 10.6938 24.2604 11.2173 24.784C11.7409 25.3076 12.0018 25.9351 12 26.6667C11.9982 27.3982 11.7373 28.0262 11.2173 28.5507C10.6973 29.0751 10.0693 29.336 9.33331 29.3333C8.59731 29.3307 7.96976 29.0698 7.45065 28.5507ZM20.784 28.5507C20.2613 28.028 20 27.4 20 26.6667C20 25.9333 20.2613 25.3058 20.784 24.784C21.3066 24.2622 21.9342 24.0009 22.6666 24C23.3991 23.9991 24.0271 24.2604 24.5506 24.784C25.0742 25.3076 25.3351 25.9351 25.3333 26.6667C25.3315 27.3982 25.0706 28.0262 24.5506 28.5507C24.0306 29.0751 23.4026 29.336 22.6666 29.3333C21.9306 29.3307 21.3031 29.0698 20.784 28.5507ZM8.19998 8L11.4 14.6667H20.7333L24.4 8H8.19998ZM6.93331 5.33333H26.6C27.1111 5.33333 27.5 5.56133 27.7666 6.01733C28.0333 6.47333 28.0444 6.93422 27.8 7.4L23.0666 15.9333C22.8222 16.3778 22.4946 16.7222 22.084 16.9667C21.6733 17.2111 21.2231 17.3333 20.7333 17.3333H10.8L9.33331 20H25.3333V22.6667H9.33331C8.33331 22.6667 7.57776 22.228 7.06665 21.3507C6.55554 20.4733 6.53331 19.6009 6.99998 18.7333L8.79998 15.4667L3.99998 5.33333H1.33331V2.66666H5.66665L6.93331 5.33333Z" fill="white"/>
</svg>
