<svg width="32" height="32" viewBox="0 0 32 32" fill="none" xmlns="http://www.w3.org/2000/svg">
<path d="M16 5.33333C17.4145 5.33333 18.771 5.89523 19.7712 6.89543C20.7714 7.89562 21.3333 9.25217 21.3333 10.6667C21.3333 12.0811 20.7714 13.4377 19.7712 14.4379C18.771 15.4381 17.4145 16 16 16C14.5855 16 13.2289 15.4381 12.2287 14.4379C11.2285 13.4377 10.6666 12.0811 10.6666 10.6667C10.6666 9.25217 11.2285 7.89562 12.2287 6.89543C13.2289 5.89523 14.5855 5.33333 16 5.33333ZM16 7.99999C15.2927 7.99999 14.6145 8.28095 14.1144 8.78104C13.6143 9.28114 13.3333 9.95942 13.3333 10.6667C13.3333 11.3739 13.6143 12.0522 14.1144 12.5523C14.6145 13.0524 15.2927 13.3333 16 13.3333C16.7072 13.3333 17.3855 13.0524 17.8856 12.5523C18.3857 12.0522 18.6666 11.3739 18.6666 10.6667C18.6666 9.95942 18.3857 9.28114 17.8856 8.78104C17.3855 8.28095 16.7072 7.99999 16 7.99999ZM16 17.3333C19.56 17.3333 26.6666 19.1067 26.6666 22.6667V26.6667H5.33331V22.6667C5.33331 19.1067 12.44 17.3333 16 17.3333ZM16 19.8667C12.04 19.8667 7.86665 21.8133 7.86665 22.6667V24.1333H24.1333V22.6667C24.1333 21.8133 19.96 19.8667 16 19.8667Z" fill="white"/>
</svg>
